<?xml version="1.0" encoding="UTF-8" standalone="no"?>
<!DOCTYPE svg PUBLIC "-//W3C//DTD SVG 1.1//EN"
 "http://www.w3.org/Graphics/SVG/1.1/DTD/svg11.dtd">
<!-- Generated by graphviz version 2.42.3 (20191010.1750)
 -->
<!-- Title: snakemake_dag Pages: 1 -->
<svg width="1086pt" height="764pt"
 viewBox="0.00 0.00 1085.50 764.00" xmlns="http://www.w3.org/2000/svg" xmlns:xlink="http://www.w3.org/1999/xlink">
<g id="graph0" class="graph" transform="scale(1 1) rotate(0) translate(4 760)">
<title>snakemake_dag</title>
<polygon fill="white" stroke="transparent" points="-4,4 -4,-760 1081.5,-760 1081.5,4 -4,4"/>
<!-- 0 -->
<g id="node1" class="node">
<title>0</title>
<path fill="none" stroke="#b6d856" stroke-width="2" d="M525,-36C525,-36 495,-36 495,-36 489,-36 483,-30 483,-24 483,-24 483,-12 483,-12 483,-6 489,0 495,0 495,0 525,0 525,0 531,0 537,-6 537,-12 537,-12 537,-24 537,-24 537,-30 531,-36 525,-36"/>
<text text-anchor="middle" x="510" y="-15.5" font-family="sans" font-size="10.00">all</text>
</g>
<!-- 1 -->
<g id="node2" class="node">
<title>1</title>
<path fill="none" stroke="#59d856" stroke-width="2" d="M99.5,-756C99.5,-756 50.5,-756 50.5,-756 44.5,-756 38.5,-750 38.5,-744 38.5,-744 38.5,-732 38.5,-732 38.5,-726 44.5,-720 50.5,-720 50.5,-720 99.5,-720 99.5,-720 105.5,-720 111.5,-726 111.5,-732 111.5,-732 111.5,-744 111.5,-744 111.5,-750 105.5,-756 99.5,-756"/>
<text text-anchor="middle" x="75" y="-735.5" font-family="sans" font-size="10.00">trim_galore</text>
</g>
<!-- 1&#45;&gt;0 -->
<g id="edge11" class="edge">
<title>1&#45;&gt;0</title>
<path fill="none" stroke="grey" stroke-width="2" d="M58.73,-719.73C36.67,-694.45 0,-644.91 0,-595 0,-595 0,-595 0,-161 0,-116.27 10.07,-97.24 47,-72 115.97,-24.87 374.95,-19.29 472.51,-18.89"/>
<polygon fill="grey" stroke="grey" stroke-width="2" points="472.79,-22.39 482.78,-18.87 472.77,-15.39 472.79,-22.39"/>
</g>
<!-- 3 -->
<g id="node4" class="node">
<title>3</title>
<path fill="none" stroke="#56d8c9" stroke-width="2" d="M169,-684C169,-684 131,-684 131,-684 125,-684 119,-678 119,-672 119,-672 119,-660 119,-660 119,-654 125,-648 131,-648 131,-648 169,-648 169,-648 175,-648 181,-654 181,-660 181,-660 181,-672 181,-672 181,-678 175,-684 169,-684"/>
<text text-anchor="middle" x="150" y="-663.5" font-family="sans" font-size="10.00">star_map</text>
</g>
<!-- 1&#45;&gt;3 -->
<g id="edge22" class="edge">
<title>1&#45;&gt;3</title>
<path fill="none" stroke="grey" stroke-width="2" d="M93.54,-719.7C102.8,-711.05 114.16,-700.45 124.26,-691.03"/>
<polygon fill="grey" stroke="grey" stroke-width="2" points="126.75,-693.49 131.67,-684.1 121.98,-688.37 126.75,-693.49"/>
</g>
<!-- 2 -->
<g id="node3" class="node">
<title>2</title>
<path fill="none" stroke="#56d8b1" stroke-width="2" d="M1065.5,-108C1065.5,-108 1000.5,-108 1000.5,-108 994.5,-108 988.5,-102 988.5,-96 988.5,-96 988.5,-84 988.5,-84 988.5,-78 994.5,-72 1000.5,-72 1000.5,-72 1065.5,-72 1065.5,-72 1071.5,-72 1077.5,-78 1077.5,-84 1077.5,-84 1077.5,-96 1077.5,-96 1077.5,-102 1071.5,-108 1065.5,-108"/>
<text text-anchor="middle" x="1033" y="-87.5" font-family="sans" font-size="10.00">multiqc_fastqc</text>
</g>
<!-- 2&#45;&gt;0 -->
<g id="edge15" class="edge">
<title>2&#45;&gt;0</title>
<path fill="none" stroke="grey" stroke-width="2" d="M988.42,-75.31C983.58,-74.07 978.7,-72.94 974,-72 817.38,-40.72 627.06,-26.2 547.64,-21.16"/>
<polygon fill="grey" stroke="grey" stroke-width="2" points="547.38,-17.64 537.18,-20.52 546.94,-24.63 547.38,-17.64"/>
</g>
<!-- 3&#45;&gt;0 -->
<g id="edge16" class="edge">
<title>3&#45;&gt;0</title>
<path fill="none" stroke="grey" stroke-width="2" d="M181.26,-662.9C330.12,-652.47 960,-603.58 960,-523 960,-523 960,-523 960,-161 960,-108.98 929.59,-97.05 884,-72 826.46,-40.39 630.14,-25.8 547.33,-20.95"/>
<polygon fill="grey" stroke="grey" stroke-width="2" points="547.3,-17.44 537.12,-20.37 546.9,-24.43 547.3,-17.44"/>
</g>
<!-- 4 -->
<g id="node5" class="node">
<title>4</title>
<path fill="none" stroke="#56d89a" stroke-width="2" d="M110,-540C110,-540 40,-540 40,-540 34,-540 28,-534 28,-528 28,-528 28,-516 28,-516 28,-510 34,-504 40,-504 40,-504 110,-504 110,-504 116,-504 122,-510 122,-516 122,-516 122,-528 122,-528 122,-534 116,-540 110,-540"/>
<text text-anchor="middle" x="75" y="-519.5" font-family="sans" font-size="10.00">samtools_index</text>
</g>
<!-- 3&#45;&gt;4 -->
<g id="edge23" class="edge">
<title>3&#45;&gt;4</title>
<path fill="none" stroke="grey" stroke-width="2" d="M140.95,-647.87C128,-623.35 104.07,-578.03 88.87,-549.26"/>
<polygon fill="grey" stroke="grey" stroke-width="2" points="91.84,-547.4 84.08,-540.19 85.65,-550.67 91.84,-547.4"/>
</g>
<!-- 5 -->
<g id="node6" class="node">
<title>5</title>
<path fill="none" stroke="#56d86b" stroke-width="2" d="M143,-468C143,-468 105,-468 105,-468 99,-468 93,-462 93,-456 93,-456 93,-444 93,-444 93,-438 99,-432 105,-432 105,-432 143,-432 143,-432 149,-432 155,-438 155,-444 155,-444 155,-456 155,-456 155,-462 149,-468 143,-468"/>
<text text-anchor="middle" x="124" y="-447.5" font-family="sans" font-size="10.00">post_stat</text>
</g>
<!-- 3&#45;&gt;5 -->
<g id="edge24" class="edge">
<title>3&#45;&gt;5</title>
<path fill="none" stroke="grey" stroke-width="2" d="M148.03,-647.6C144.66,-618.06 137.53,-556.23 131,-504 129.95,-495.58 128.75,-486.42 127.65,-478.11"/>
<polygon fill="grey" stroke="grey" stroke-width="2" points="131.12,-477.63 126.33,-468.18 124.18,-478.55 131.12,-477.63"/>
</g>
<!-- 6 -->
<g id="node7" class="node">
<title>6</title>
<path fill="none" stroke="#9fd856" stroke-width="2" d="M623,-612C623,-612 593,-612 593,-612 587,-612 581,-606 581,-600 581,-600 581,-588 581,-588 581,-582 587,-576 593,-576 593,-576 623,-576 623,-576 629,-576 635,-582 635,-588 635,-588 635,-600 635,-600 635,-606 629,-612 623,-612"/>
<text text-anchor="middle" x="608" y="-591.5" font-family="sans" font-size="10.00">rmchrM</text>
</g>
<!-- 3&#45;&gt;6 -->
<g id="edge25" class="edge">
<title>3&#45;&gt;6</title>
<path fill="none" stroke="grey" stroke-width="2" d="M181.12,-660.24C262.76,-647.77 482.86,-614.13 570.88,-600.67"/>
<polygon fill="grey" stroke="grey" stroke-width="2" points="571.59,-604.11 580.94,-599.14 570.53,-597.19 571.59,-604.11"/>
</g>
<!-- 4&#45;&gt;0 -->
<g id="edge14" class="edge">
<title>4&#45;&gt;0</title>
<path fill="none" stroke="grey" stroke-width="2" d="M67.51,-503.89C56.7,-477.58 38,-425.37 38,-379 38,-379 38,-379 38,-161 38,-115.41 51.06,-97.28 89,-72 151.5,-30.35 381.57,-21.42 472.59,-19.52"/>
<polygon fill="grey" stroke="grey" stroke-width="2" points="472.79,-23.01 482.72,-19.32 472.66,-16.01 472.79,-23.01"/>
</g>
<!-- 5&#45;&gt;0 -->
<g id="edge12" class="edge">
<title>5&#45;&gt;0</title>
<path fill="none" stroke="grey" stroke-width="2" d="M114.05,-431.71C99.99,-405.58 76,-354.1 76,-307 76,-307 76,-307 76,-161 76,-113.3 95.56,-97.31 136,-72 191.78,-37.09 389.91,-24.35 472.95,-20.47"/>
<polygon fill="grey" stroke="grey" stroke-width="2" points="473.12,-23.96 482.96,-20.02 472.81,-16.97 473.12,-23.96"/>
</g>
<!-- 6&#45;&gt;0 -->
<g id="edge8" class="edge">
<title>6&#45;&gt;0</title>
<path fill="none" stroke="grey" stroke-width="2" d="M635.04,-593.06C711.21,-591.67 922,-576.49 922,-451 922,-451 922,-451 922,-161 922,-107.21 887.39,-97.44 840,-72 789.77,-45.03 622.21,-28.24 547.04,-21.89"/>
<polygon fill="grey" stroke="grey" stroke-width="2" points="547.33,-18.4 537.07,-21.06 546.75,-25.37 547.33,-18.4"/>
</g>
<!-- 7 -->
<g id="node8" class="node">
<title>7</title>
<path fill="none" stroke="#70d856" stroke-width="2" d="M623,-540C623,-540 593,-540 593,-540 587,-540 581,-534 581,-528 581,-528 581,-516 581,-516 581,-510 587,-504 593,-504 593,-504 623,-504 623,-504 629,-504 635,-510 635,-516 635,-516 635,-528 635,-528 635,-534 629,-540 623,-540"/>
<text text-anchor="middle" x="608" y="-519.5" font-family="sans" font-size="10.00">rmdup</text>
</g>
<!-- 6&#45;&gt;7 -->
<g id="edge26" class="edge">
<title>6&#45;&gt;7</title>
<path fill="none" stroke="grey" stroke-width="2" d="M608,-575.7C608,-567.98 608,-558.71 608,-550.11"/>
<polygon fill="grey" stroke="grey" stroke-width="2" points="611.5,-550.1 608,-540.1 604.5,-550.1 611.5,-550.1"/>
</g>
<!-- 7&#45;&gt;0 -->
<g id="edge10" class="edge">
<title>7&#45;&gt;0</title>
<path fill="none" stroke="grey" stroke-width="2" d="M635.22,-519.59C704.85,-514.37 884,-490.14 884,-379 884,-379 884,-379 884,-161 884,-104.74 843.84,-98.08 794,-72 713.22,-29.72 603.96,-20.76 547.4,-19.12"/>
<polygon fill="grey" stroke="grey" stroke-width="2" points="547.22,-15.62 537.14,-18.89 547.06,-22.61 547.22,-15.62"/>
</g>
<!-- 8 -->
<g id="node9" class="node">
<title>8</title>
<path fill="none" stroke="#ced856" stroke-width="2" d="M360,-468C360,-468 298,-468 298,-468 292,-468 286,-462 286,-456 286,-456 286,-444 286,-444 286,-438 292,-432 298,-432 298,-432 360,-432 360,-432 366,-432 372,-438 372,-444 372,-444 372,-456 372,-456 372,-462 366,-468 360,-468"/>
<text text-anchor="middle" x="329" y="-447.5" font-family="sans" font-size="10.00">filter_blacklist</text>
</g>
<!-- 7&#45;&gt;8 -->
<g id="edge27" class="edge">
<title>7&#45;&gt;8</title>
<path fill="none" stroke="grey" stroke-width="2" d="M580.99,-514.22C535.23,-502.74 441.64,-479.26 382.29,-464.37"/>
<polygon fill="grey" stroke="grey" stroke-width="2" points="382.9,-460.92 372.35,-461.88 381.2,-467.7 382.9,-460.92"/>
</g>
<!-- 8&#45;&gt;0 -->
<g id="edge7" class="edge">
<title>8&#45;&gt;0</title>
<path fill="none" stroke="grey" stroke-width="2" d="M325.16,-431.61C319.6,-404.94 310,-352.27 310,-307 310,-307 310,-307 310,-161 310,-82.06 414.86,-42.99 472.73,-27.44"/>
<polygon fill="grey" stroke="grey" stroke-width="2" points="473.8,-30.77 482.61,-24.89 472.05,-24 473.8,-30.77"/>
</g>
<!-- 9 -->
<g id="node10" class="node">
<title>9</title>
<path fill="none" stroke="#d88556" stroke-width="2" d="M573,-396C573,-396 517,-396 517,-396 511,-396 505,-390 505,-384 505,-384 505,-372 505,-372 505,-366 511,-360 517,-360 517,-360 573,-360 573,-360 579,-360 585,-366 585,-372 585,-372 585,-384 585,-384 585,-390 579,-396 573,-396"/>
<text text-anchor="middle" x="545" y="-375.5" font-family="sans" font-size="10.00">merge_bams</text>
</g>
<!-- 8&#45;&gt;9 -->
<g id="edge28" class="edge">
<title>8&#45;&gt;9</title>
<path fill="none" stroke="grey" stroke-width="2" d="M372.19,-435C407.68,-423.5 457.98,-407.2 495.17,-395.15"/>
<polygon fill="grey" stroke="grey" stroke-width="2" points="496.37,-398.44 504.8,-392.03 494.21,-391.78 496.37,-398.44"/>
</g>
<!-- 10 -->
<g id="node11" class="node">
<title>10</title>
<path fill="none" stroke="#56c9d8" stroke-width="2" d="M843.5,-252C843.5,-252 794.5,-252 794.5,-252 788.5,-252 782.5,-246 782.5,-240 782.5,-240 782.5,-228 782.5,-228 782.5,-222 788.5,-216 794.5,-216 794.5,-216 843.5,-216 843.5,-216 849.5,-216 855.5,-222 855.5,-228 855.5,-228 855.5,-240 855.5,-240 855.5,-246 849.5,-252 843.5,-252"/>
<text text-anchor="middle" x="819" y="-231.5" font-family="sans" font-size="10.00">ATACseqQC</text>
</g>
<!-- 8&#45;&gt;10 -->
<g id="edge29" class="edge">
<title>8&#45;&gt;10</title>
<path fill="none" stroke="grey" stroke-width="2" d="M372.34,-443.44C477.06,-429.1 739.47,-387.49 797,-324 812.15,-307.28 817.27,-281.79 818.82,-262.37"/>
<polygon fill="grey" stroke="grey" stroke-width="2" points="822.32,-262.47 819.35,-252.3 815.33,-262.1 822.32,-262.47"/>
</g>
<!-- 11 -->
<g id="node12" class="node">
<title>11</title>
<path fill="none" stroke="#88d856" stroke-width="2" d="M180,-180C180,-180 116,-180 116,-180 110,-180 104,-174 104,-168 104,-168 104,-156 104,-156 104,-150 110,-144 116,-144 116,-144 180,-144 180,-144 186,-144 192,-150 192,-156 192,-156 192,-168 192,-168 192,-174 186,-180 180,-180"/>
<text text-anchor="middle" x="148" y="-159.5" font-family="sans" font-size="10.00">macs2_narrow</text>
</g>
<!-- 8&#45;&gt;11 -->
<g id="edge30" class="edge">
<title>8&#45;&gt;11</title>
<path fill="none" stroke="grey" stroke-width="2" d="M285.76,-444.52C253.33,-438.8 210.48,-425.74 186,-396 136.82,-336.26 139.51,-237.91 144.31,-190.39"/>
<polygon fill="grey" stroke="grey" stroke-width="2" points="147.81,-190.58 145.45,-180.25 140.86,-189.8 147.81,-190.58"/>
</g>
<!-- 12 -->
<g id="node13" class="node">
<title>12</title>
<path fill="none" stroke="#d89c56" stroke-width="2" d="M232,-108C232,-108 174,-108 174,-108 168,-108 162,-102 162,-96 162,-96 162,-84 162,-84 162,-78 168,-72 174,-72 174,-72 232,-72 232,-72 238,-72 244,-78 244,-84 244,-84 244,-96 244,-96 244,-102 238,-108 232,-108"/>
<text text-anchor="middle" x="203" y="-87.5" font-family="sans" font-size="10.00">macs2_broad</text>
</g>
<!-- 8&#45;&gt;12 -->
<g id="edge31" class="edge">
<title>8&#45;&gt;12</title>
<path fill="none" stroke="grey" stroke-width="2" d="M285.83,-439.62C261.96,-432.05 234.15,-418.77 219,-396 203.87,-373.27 202.73,-189.66 202.86,-118.78"/>
<polygon fill="grey" stroke="grey" stroke-width="2" points="206.36,-118.42 202.89,-108.41 199.36,-118.4 206.36,-118.42"/>
</g>
<!-- 17 -->
<g id="node18" class="node">
<title>17</title>
<path fill="none" stroke="#5682d8" stroke-width="2" d="M444,-180C444,-180 388,-180 388,-180 382,-180 376,-174 376,-168 376,-168 376,-156 376,-156 376,-150 382,-144 388,-144 388,-144 444,-144 444,-144 450,-144 456,-150 456,-156 456,-156 456,-168 456,-168 456,-174 450,-180 444,-180"/>
<text text-anchor="middle" x="416" y="-159.5" font-family="sans" font-size="10.00">featureCount</text>
</g>
<!-- 8&#45;&gt;17 -->
<g id="edge37" class="edge">
<title>8&#45;&gt;17</title>
<path fill="none" stroke="grey" stroke-width="2" d="M332.21,-431.86C337.96,-402.21 350.91,-339.54 367,-288 377.86,-253.23 393.72,-214.34 404.43,-189.31"/>
<polygon fill="grey" stroke="grey" stroke-width="2" points="407.64,-190.68 408.39,-180.11 401.22,-187.91 407.64,-190.68"/>
</g>
<!-- 21 -->
<g id="node22" class="node">
<title>21</title>
<path fill="none" stroke="#569ad8" stroke-width="2" d="M270,-396C270,-396 240,-396 240,-396 234,-396 228,-390 228,-384 228,-384 228,-372 228,-372 228,-366 234,-360 240,-360 240,-360 270,-360 270,-360 276,-360 282,-366 282,-372 282,-372 282,-384 282,-384 282,-390 276,-396 270,-396"/>
<text text-anchor="middle" x="255" y="-375.5" font-family="sans" font-size="10.00">get_bw</text>
</g>
<!-- 8&#45;&gt;21 -->
<g id="edge42" class="edge">
<title>8&#45;&gt;21</title>
<path fill="none" stroke="grey" stroke-width="2" d="M310.71,-431.7C301.57,-423.05 290.36,-412.45 280.4,-403.03"/>
<polygon fill="grey" stroke="grey" stroke-width="2" points="282.75,-400.43 273.08,-396.1 277.94,-405.52 282.75,-400.43"/>
</g>
<!-- 9&#45;&gt;0 -->
<g id="edge3" class="edge">
<title>9&#45;&gt;0</title>
<path fill="none" stroke="grey" stroke-width="2" d="M537.16,-359.66C526.92,-335.94 509.5,-291.76 503,-252 490.96,-178.36 499.89,-89.94 505.84,-46.22"/>
<polygon fill="grey" stroke="grey" stroke-width="2" points="509.33,-46.5 507.27,-36.1 502.4,-45.51 509.33,-46.5"/>
</g>
<!-- 13 -->
<g id="node14" class="node">
<title>13</title>
<path fill="none" stroke="#566bd8" stroke-width="2" d="M623,-324C623,-324 553,-324 553,-324 547,-324 541,-318 541,-312 541,-312 541,-300 541,-300 541,-294 547,-288 553,-288 553,-288 623,-288 623,-288 629,-288 635,-294 635,-300 635,-300 635,-312 635,-312 635,-318 629,-324 623,-324"/>
<text text-anchor="middle" x="588" y="-303.5" font-family="sans" font-size="10.00">macs2_narrow2</text>
</g>
<!-- 9&#45;&gt;13 -->
<g id="edge32" class="edge">
<title>9&#45;&gt;13</title>
<path fill="none" stroke="grey" stroke-width="2" d="M555.63,-359.7C560.63,-351.56 566.69,-341.69 572.21,-332.7"/>
<polygon fill="grey" stroke="grey" stroke-width="2" points="575.24,-334.46 577.49,-324.1 569.28,-330.79 575.24,-334.46"/>
</g>
<!-- 14 -->
<g id="node15" class="node">
<title>14</title>
<path fill="none" stroke="#56b1d8" stroke-width="2" d="M776,-324C776,-324 712,-324 712,-324 706,-324 700,-318 700,-312 700,-312 700,-300 700,-300 700,-294 706,-288 712,-288 712,-288 776,-288 776,-288 782,-288 788,-294 788,-300 788,-300 788,-312 788,-312 788,-318 782,-324 776,-324"/>
<text text-anchor="middle" x="744" y="-303.5" font-family="sans" font-size="10.00">macs2_broad2</text>
</g>
<!-- 9&#45;&gt;14 -->
<g id="edge33" class="edge">
<title>9&#45;&gt;14</title>
<path fill="none" stroke="grey" stroke-width="2" d="M585.27,-362.83C615.56,-352.18 657.36,-337.48 690.46,-325.83"/>
<polygon fill="grey" stroke="grey" stroke-width="2" points="691.71,-329.1 699.99,-322.48 689.39,-322.5 691.71,-329.1"/>
</g>
<!-- 19 -->
<g id="node20" class="node">
<title>19</title>
<path fill="none" stroke="#d8cb56" stroke-width="2" d="M714,-252C714,-252 664,-252 664,-252 658,-252 652,-246 652,-240 652,-240 652,-228 652,-228 652,-222 658,-216 664,-216 664,-216 714,-216 714,-216 720,-216 726,-222 726,-228 726,-228 726,-240 726,-240 726,-246 720,-252 714,-252"/>
<text text-anchor="middle" x="689" y="-231.5" font-family="sans" font-size="10.00">footprinting</text>
</g>
<!-- 9&#45;&gt;19 -->
<g id="edge39" class="edge">
<title>9&#45;&gt;19</title>
<path fill="none" stroke="grey" stroke-width="2" d="M585.29,-362.19C604.88,-353.43 627.65,-340.73 644,-324 661.13,-306.47 673.07,-281.11 680.33,-261.94"/>
<polygon fill="grey" stroke="grey" stroke-width="2" points="683.71,-262.89 683.79,-252.29 677.12,-260.52 683.71,-262.89"/>
</g>
<!-- 20 -->
<g id="node21" class="node">
<title>20</title>
<path fill="none" stroke="#d85656" stroke-width="2" d="M462,-324C462,-324 388,-324 388,-324 382,-324 376,-318 376,-312 376,-312 376,-300 376,-300 376,-294 382,-288 388,-288 388,-288 462,-288 462,-288 468,-288 474,-294 474,-300 474,-300 474,-312 474,-312 474,-318 468,-324 462,-324"/>
<text text-anchor="middle" x="425" y="-303.5" font-family="sans" font-size="10.00">nucleosome_pos</text>
</g>
<!-- 9&#45;&gt;20 -->
<g id="edge41" class="edge">
<title>9&#45;&gt;20</title>
<path fill="none" stroke="grey" stroke-width="2" d="M515.64,-359.88C499.95,-350.72 480.44,-339.34 463.55,-329.48"/>
<polygon fill="grey" stroke="grey" stroke-width="2" points="464.87,-326.21 454.47,-324.19 461.34,-332.25 464.87,-326.21"/>
</g>
<!-- 10&#45;&gt;0 -->
<g id="edge17" class="edge">
<title>10&#45;&gt;0</title>
<path fill="none" stroke="grey" stroke-width="2" d="M818.91,-215.94C817.76,-182.9 810.26,-110.07 768,-72 735.9,-43.08 610.6,-27.98 547.19,-22.05"/>
<polygon fill="grey" stroke="grey" stroke-width="2" points="547.48,-18.56 537.2,-21.14 546.85,-25.53 547.48,-18.56"/>
</g>
<!-- 11&#45;&gt;0 -->
<g id="edge9" class="edge">
<title>11&#45;&gt;0</title>
<path fill="none" stroke="grey" stroke-width="2" d="M143.23,-143.84C138.84,-123.92 135.37,-91.32 153,-72 195.29,-25.67 389.81,-19.39 472.57,-18.85"/>
<polygon fill="grey" stroke="grey" stroke-width="2" points="472.8,-22.35 482.78,-18.81 472.77,-15.35 472.8,-22.35"/>
</g>
<!-- 12&#45;&gt;0 -->
<g id="edge4" class="edge">
<title>12&#45;&gt;0</title>
<path fill="none" stroke="grey" stroke-width="2" d="M244.03,-75.86C248.72,-74.5 253.45,-73.18 258,-72 333.76,-52.37 423.74,-34.8 473.07,-25.66"/>
<polygon fill="grey" stroke="grey" stroke-width="2" points="473.76,-29.09 482.96,-23.84 472.49,-22.21 473.76,-29.09"/>
</g>
<!-- 13&#45;&gt;0 -->
<g id="edge21" class="edge">
<title>13&#45;&gt;0</title>
<path fill="none" stroke="grey" stroke-width="2" d="M598.7,-287.74C615.55,-258.42 645.17,-196.89 633,-144 625.02,-109.33 622.01,-98.26 598,-72 583.68,-56.34 563.67,-43.79 546.34,-34.84"/>
<polygon fill="grey" stroke="grey" stroke-width="2" points="547.56,-31.54 537.05,-30.24 544.46,-37.81 547.56,-31.54"/>
</g>
<!-- 15 -->
<g id="node16" class="node">
<title>15</title>
<path fill="none" stroke="#d8b456" stroke-width="2" d="M583.5,-252C583.5,-252 524.5,-252 524.5,-252 518.5,-252 512.5,-246 512.5,-240 512.5,-240 512.5,-228 512.5,-228 512.5,-222 518.5,-216 524.5,-216 524.5,-216 583.5,-216 583.5,-216 589.5,-216 595.5,-222 595.5,-228 595.5,-228 595.5,-240 595.5,-240 595.5,-246 589.5,-252 583.5,-252"/>
<text text-anchor="middle" x="554" y="-231.5" font-family="sans" font-size="10.00">merge_peaks</text>
</g>
<!-- 13&#45;&gt;15 -->
<g id="edge34" class="edge">
<title>13&#45;&gt;15</title>
<path fill="none" stroke="grey" stroke-width="2" d="M579.6,-287.7C575.73,-279.73 571.05,-270.1 566.76,-261.26"/>
<polygon fill="grey" stroke="grey" stroke-width="2" points="569.83,-259.57 562.31,-252.1 563.53,-262.63 569.83,-259.57"/>
</g>
<!-- 13&#45;&gt;19 -->
<g id="edge40" class="edge">
<title>13&#45;&gt;19</title>
<path fill="none" stroke="grey" stroke-width="2" d="M612.71,-287.88C625.67,-278.89 641.73,-267.76 655.77,-258.03"/>
<polygon fill="grey" stroke="grey" stroke-width="2" points="657.97,-260.76 664.2,-252.19 653.98,-255.01 657.97,-260.76"/>
</g>
<!-- 14&#45;&gt;0 -->
<g id="edge18" class="edge">
<title>14&#45;&gt;0</title>
<path fill="none" stroke="grey" stroke-width="2" d="M747.28,-287.99C754.42,-245.48 766.48,-133.63 710,-72 688.26,-48.28 599,-31.8 547.37,-24.05"/>
<polygon fill="grey" stroke="grey" stroke-width="2" points="547.67,-20.55 537.27,-22.57 546.65,-27.48 547.67,-20.55"/>
</g>
<!-- 15&#45;&gt;0 -->
<g id="edge5" class="edge">
<title>15&#45;&gt;0</title>
<path fill="none" stroke="grey" stroke-width="2" d="M583.5,-215.94C595.98,-206.99 609.19,-194.79 616,-180 622.7,-165.47 621.51,-159.02 616,-144 600.81,-102.6 565.17,-65.52 539.4,-42.7"/>
<polygon fill="grey" stroke="grey" stroke-width="2" points="541.61,-39.98 531.75,-36.08 537.03,-45.27 541.61,-39.98"/>
</g>
<!-- 16 -->
<g id="node17" class="node">
<title>16</title>
<path fill="none" stroke="#56d882" stroke-width="2" d="M595.5,-180C595.5,-180 524.5,-180 524.5,-180 518.5,-180 512.5,-174 512.5,-168 512.5,-168 512.5,-156 512.5,-156 512.5,-150 518.5,-144 524.5,-144 524.5,-144 595.5,-144 595.5,-144 601.5,-144 607.5,-150 607.5,-156 607.5,-156 607.5,-168 607.5,-168 607.5,-174 601.5,-180 595.5,-180"/>
<text text-anchor="middle" x="560" y="-159.5" font-family="sans" font-size="10.00">annotate_peaks</text>
</g>
<!-- 15&#45;&gt;16 -->
<g id="edge35" class="edge">
<title>15&#45;&gt;16</title>
<path fill="none" stroke="grey" stroke-width="2" d="M555.48,-215.7C556.14,-207.98 556.94,-198.71 557.68,-190.11"/>
<polygon fill="grey" stroke="grey" stroke-width="2" points="561.17,-190.37 558.53,-180.1 554.19,-189.77 561.17,-190.37"/>
</g>
<!-- 15&#45;&gt;17 -->
<g id="edge36" class="edge">
<title>15&#45;&gt;17</title>
<path fill="none" stroke="grey" stroke-width="2" d="M520.24,-215.88C501.78,-206.51 478.72,-194.81 458.98,-184.8"/>
<polygon fill="grey" stroke="grey" stroke-width="2" points="460.39,-181.59 449.89,-180.19 457.22,-187.83 460.39,-181.59"/>
</g>
<!-- 16&#45;&gt;0 -->
<g id="edge13" class="edge">
<title>16&#45;&gt;0</title>
<path fill="none" stroke="grey" stroke-width="2" d="M553.97,-143.87C545.37,-119.46 529.52,-74.43 519.38,-45.64"/>
<polygon fill="grey" stroke="grey" stroke-width="2" points="522.68,-44.46 516.05,-36.19 516.07,-46.78 522.68,-44.46"/>
</g>
<!-- 17&#45;&gt;0 -->
<g id="edge20" class="edge">
<title>17&#45;&gt;0</title>
<path fill="none" stroke="grey" stroke-width="2" d="M407.85,-143.9C400.1,-124.9 391.45,-94.01 405,-72 419.7,-48.11 448.86,-34.6 472.73,-27.2"/>
<polygon fill="grey" stroke="grey" stroke-width="2" points="473.92,-30.51 482.58,-24.4 472,-23.77 473.92,-30.51"/>
</g>
<!-- 18 -->
<g id="node19" class="node">
<title>18</title>
<path fill="none" stroke="#d86e56" stroke-width="2" d="M469.5,-108C469.5,-108 426.5,-108 426.5,-108 420.5,-108 414.5,-102 414.5,-96 414.5,-96 414.5,-84 414.5,-84 414.5,-78 420.5,-72 426.5,-72 426.5,-72 469.5,-72 469.5,-72 475.5,-72 481.5,-78 481.5,-84 481.5,-84 481.5,-96 481.5,-96 481.5,-102 475.5,-108 469.5,-108"/>
<text text-anchor="middle" x="448" y="-87.5" font-family="sans" font-size="10.00">diff_peaks</text>
</g>
<!-- 17&#45;&gt;18 -->
<g id="edge38" class="edge">
<title>17&#45;&gt;18</title>
<path fill="none" stroke="grey" stroke-width="2" d="M423.91,-143.7C427.55,-135.73 431.95,-126.1 435.99,-117.26"/>
<polygon fill="grey" stroke="grey" stroke-width="2" points="439.21,-118.65 440.18,-108.1 432.84,-115.74 439.21,-118.65"/>
</g>
<!-- 18&#45;&gt;0 -->
<g id="edge2" class="edge">
<title>18&#45;&gt;0</title>
<path fill="none" stroke="grey" stroke-width="2" d="M463.33,-71.7C470.76,-63.3 479.82,-53.07 487.98,-43.86"/>
<polygon fill="grey" stroke="grey" stroke-width="2" points="490.84,-45.91 494.85,-36.1 485.6,-41.27 490.84,-45.91"/>
</g>
<!-- 19&#45;&gt;0 -->
<g id="edge6" class="edge">
<title>19&#45;&gt;0</title>
<path fill="none" stroke="grey" stroke-width="2" d="M694.88,-215.89C704.67,-184.02 720.21,-114.92 688,-72 671.09,-49.46 594.3,-32.99 547.27,-24.81"/>
<polygon fill="grey" stroke="grey" stroke-width="2" points="547.6,-21.32 537.15,-23.1 546.43,-28.22 547.6,-21.32"/>
</g>
<!-- 20&#45;&gt;0 -->
<g id="edge1" class="edge">
<title>20&#45;&gt;0</title>
<path fill="none" stroke="grey" stroke-width="2" d="M412.15,-287.67C392.23,-258.73 357.14,-198.37 367,-144 373.1,-110.37 370.69,-96.99 394,-72 415.2,-49.27 448.02,-35.53 473.35,-27.76"/>
<polygon fill="grey" stroke="grey" stroke-width="2" points="474.36,-31.11 483,-24.97 472.42,-24.39 474.36,-31.11"/>
</g>
<!-- 21&#45;&gt;0 -->
<g id="edge19" class="edge">
<title>21&#45;&gt;0</title>
<path fill="none" stroke="grey" stroke-width="2" d="M258.44,-359.59C263.41,-332.9 272,-280.19 272,-235 272,-235 272,-235 272,-161 272,-120.03 266.73,-100.67 296,-72 320.85,-47.66 418.32,-31.16 472.74,-23.64"/>
<polygon fill="grey" stroke="grey" stroke-width="2" points="473.25,-27.11 482.69,-22.3 472.31,-20.17 473.25,-27.11"/>
</g>
</g>
</svg>
